<?xml version="1.0" encoding="UTF-8"?>
<svg width="245px" height="180px" viewBox="0 0 245 180" version="1.1" xmlns="http://www.w3.org/2000/svg" xmlns:xlink="http://www.w3.org/1999/xlink">
    <!-- Generator: Sketch 55 (78076) - https://sketchapp.com -->
    <title>Group 14</title>
    <desc>Created with Sketch.</desc>
    <g id="Plugin-Increase-File" stroke="none" stroke-width="1" fill="none" fill-rule="evenodd" opacity="0.348997201">
        <g id="IFM----More-Optimization-V2" transform="translate(-439.000000, -1550.000000)" fill="#8BA6B4">
            <g id="Group-14" transform="translate(131.000000, 1509.000000)">
                <g transform="translate(308.000000, 41.000000)" id="Group-7">
                    <g opacity="0.335179571">
                        <path d="M56.2341674,173.134729 L15.7050377,102.817583 L30.3968472,94.2176439 L26.0906272,83.5941901 L0,98.5176133 L51.9279474,188.564031 L92.457077,165.293609 C92.7103841,161.246579 93.2169982,157.199549 93.7236124,153.152519 L84.0979441,156.946609 L56.2341674,173.134729 L56.2341674,173.134729 Z" id="Shape"></path>
                        <path d="M40.3498099,70.1454991 L52.5085488,65.5925904 L49.7221711,54.7161972 L25.9113074,63.8220147 L62.3875241,159.686038 L95.8240561,147.03907 C97.0905914,142.233221 99.1170479,137.427373 101.396811,132.874464 L68.9735077,145.268494 L40.3498099,70.1454991 L40.3498099,70.1454991 Z" id="Shape"></path>
                        <path d="M103.344049,37.9973592 L86.8790896,106.79687 L137.540502,96.4263551 C140.580186,94.9087188 143.619871,93.6440219 146.912863,92.6322644 C150.712469,91.3675676 154.512075,90.35581 158.311681,89.5969919 C162.871208,88.8381738 167.684042,88.332295 172.496876,88.332295 L172.750183,88.332295 L176.549789,88.332295 L187.441993,86.0558406 L155.525303,57.7266305 L142.85995,73.4088718 L103.344049,37.9973592 L103.344049,37.9973592 Z" id="Shape"></path>
                        <ellipse id="Oval" cx="165.34682" cy="37.2227343" rx="9.87897536" ry="9.86463568"></ellipse>
                        <path d="M106.279281,123.181476 C109.82558,117.869749 114.1318,113.316841 118.691327,109.016871 L79.9353464,116.857992 L63.4703875,37.4350277 L180.751556,13.4057869 L196.963208,92.069933 C201.269428,93.5875692 205.575648,95.3581449 209.628561,97.3816599 L189.617304,-1.68489297e-14 L50.2984203,28.3292101 L71.3229063,130.263779 L106.279281,123.181476 L106.279281,123.181476 Z" id="Shape"></path>
                        <ellipse id="Oval" cx="172.216576" cy="168.699242" rx="6.07936945" ry="6.07054503"></ellipse>
                        <path d="M172.789353,95.7533451 C133.020144,95.7533451 100.596841,128.129585 100.596841,168.094007 C100.596841,176.946885 102.116683,185.293884 105.156368,193.135005 L129.473846,193.135005 C125.927547,186.811521 123.647783,179.729218 122.887862,172.141037 L115.035343,172.141037 C112.75558,172.141037 111.235737,170.370461 111.235737,168.094007 C111.235737,165.817552 113.008887,164.046977 115.035343,164.046977 L122.887862,164.046977 C123.647783,153.170583 127.954003,143.558887 134.539987,135.717767 L128.967231,130.1531 C127.447389,128.635464 127.447389,126.10607 128.967231,124.588434 C130.487074,123.070798 133.020144,123.070798 134.539987,124.588434 L140.112742,130.1531 C147.965261,123.576676 157.590929,119.276707 168.483133,118.517889 L168.483133,110.423829 C168.483133,108.147375 170.256282,106.376799 172.282739,106.376799 C174.562502,106.376799 176.335652,108.147375 176.335652,110.423829 L176.335652,118.517889 C186.214627,119.276707 195.333681,123.070798 202.932893,128.888403 L207.239113,125.853131 C209.518877,124.082555 212.558561,124.335495 214.585018,126.35901 C216.611474,128.382525 216.864781,131.670737 215.091632,133.694252 L182.921635,179.223339 C177.095573,185.040945 167.976519,185.293884 161.897149,179.729218 L161.390535,179.223339 C155.564473,173.405734 155.564473,163.541098 161.390535,157.723492 C162.150456,156.964674 162.65707,156.458795 163.416992,155.952917 L163.416992,155.952917 L195.333681,134.20013 C188.747698,129.647221 180.895179,127.117828 172.282739,127.117828 C149.485103,127.117828 131.246995,145.582402 131.246995,168.346946 C131.246995,177.705703 134.28668,186.305642 139.606128,193.135005 L205.212657,193.135005 C210.532105,186.305642 213.57179,177.705703 213.57179,168.346946 C213.57179,163.035219 212.558561,158.229371 210.785412,153.676462 L216.611474,145.582402 C219.651159,151.400008 221.424308,157.723492 221.930923,164.552855 L229.783441,164.552855 C232.063205,164.552855 233.583047,166.323431 233.583047,168.599885 C233.583047,170.87634 231.809898,172.646915 229.783441,172.646915 L221.930923,172.646915 C221.424308,180.235097 219.144545,187.317399 215.344939,193.640884 L240.422338,193.640884 C243.208716,185.799763 244.981865,177.452764 244.981865,168.599885 C244.728558,128.129585 212.558561,95.7533451 172.789353,95.7533451 L172.789353,95.7533451 Z" id="Shape"></path>
                    </g>
                </g>
            </g>
        </g>
    </g>
</svg>