<?xml version="1.0" encoding="UTF-8"?>
<svg width="59px" height="60px" viewBox="0 0 59 60" version="1.1" xmlns="http://www.w3.org/2000/svg" xmlns:xlink="http://www.w3.org/1999/xlink">
    <!-- Generator: Sketch 55 (78076) - https://sketchapp.com -->
    <title>Calque_1</title>
    <desc>Created with Sketch.</desc>
    <g id="Plugin-Increase-File" stroke="none" stroke-width="1" fill="none" fill-rule="evenodd">
        <g id="IFM----More-Optimization-V2" transform="translate(-228.000000, -750.000000)" fill="#FFFFFF">
            <g id="Group-4" transform="translate(171.000000, 667.000000)">
                <g id="Calque_1" transform="translate(57.000000, 83.000000)">
                    <path d="M57.8263441,2.10315789 C57.7275575,1.78279766 57.4756665,1.53203021 57.153871,1.43368421 C55.1197253,0.882979851 53.0192283,0.613088302 50.9112903,0.631578947 C46.0770598,0.562408602 41.3684639,2.16511936 37.5887097,5.16631579 C33.2355878,8.62072888 29.8671928,13.1499571 27.8188172,18.3031579 C26.9595812,18.06305 26.0720918,17.9377415 25.1796774,17.9305263 C23.07962,17.8925361 21.0538173,18.7038006 19.5651613,20.1789474 L12.7643011,26.9368421 C12.4701646,27.2252079 12.38075,27.6621908 12.5381401,28.0421248 C12.6955302,28.4220588 13.0683702,28.6692542 13.4811828,28.6673684 L13.5636559,28.6673684 L24.9830108,27.7515789 C24.2090323,31.08 23.6317204,34.1431579 23.5873118,34.3515789 C23.5304058,34.6483427 23.6098625,34.9548874 23.8039017,35.1871849 C23.9979408,35.4194823 24.2862052,35.5531615 24.5896774,35.5515789 L24.78,35.5515789 C24.9893548,35.5136842 28.0408602,34.92 31.3841935,34.1494737 L30.457957,45.4673684 C30.422548,45.890634 30.6567759,46.290768 31.0441421,46.468755 C31.4315083,46.646742 31.8893272,46.5645895 32.1898925,46.2631579 L38.9907527,39.5052632 C41.2429032,37.2694737 41.6743011,34.1305263 40.8939785,31.2947368 C46.0640744,29.2598142 50.6105908,25.9157541 54.0833333,21.5936842 C61.1252688,13.0547368 57.965914,2.54526316 57.8263441,2.10315789 L57.8263441,2.10315789 Z M16.1583871,26.4252632 L20.9989247,21.6063158 C22.1104592,20.5186329 23.6150272,19.9222217 25.1733333,19.9515789 C25.8156965,19.958486 26.4548188,20.0433222 27.0765591,20.2042105 C26.9433333,20.5831579 26.8101075,20.9557895 26.695914,21.2968421 C26.2772043,22.5094737 25.8458065,24.0631579 25.4270968,25.68 L16.1583871,26.4252632 Z M25.8775269,33.2526316 C26.1312903,31.9894737 26.5119355,30.0568421 26.994086,28.0484211 L31.0860215,32.1221053 C29.0812903,32.5894737 27.14,32.9936842 25.8775269,33.2526316 L25.8775269,33.2526316 Z M37.5569892,38.0715789 L32.7164516,42.8905263 L33.4650538,33.6378947 C35.0891398,33.2336842 36.6370968,32.8042105 37.8741935,32.3747368 L38.9590323,31.9957895 C39.4919355,34.08 39.2572043,36.3789474 37.5506452,38.0715789 L37.5569892,38.0715789 Z M52.5036559,20.3052632 C46.832043,27.1831579 40.8051613,29.2421053 37.2080645,30.4673684 C35.8821505,30.9221053 34.0804301,31.4021053 32.2533333,31.8442105 L27.2732258,26.8863158 C27.7046237,25.0926316 28.1867742,23.2736842 28.6435484,21.9347368 C29.8806452,18.3536842 31.9488172,12.36 38.8575269,6.72 C42.2801167,4.01300477 46.5406673,2.5731111 50.9112903,2.64631579 C52.6194163,2.64653366 54.3220225,2.83934129 55.9865591,3.22105263 C56.5321505,5.38105263 57.9976344,13.6484211 52.5036559,20.3052632 L52.5036559,20.3052632 Z" id="Shape"></path>
                    <path d="M45.7535484,8.47578947 C43.3720381,8.47583274 41.3220762,10.1503657 40.8569814,12.4756017 C40.3918866,14.8008376 41.6411459,17.1294086 43.8409791,18.037658 C46.0408123,18.9459074 48.5787647,18.1809698 49.9031668,16.2105178 C51.2275689,14.2400657 50.9696944,11.6126918 49.2872043,9.93473684 C48.3525956,8.99768798 47.0799823,8.47226167 45.7535484,8.47578947 L45.7535484,8.47578947 Z M48.3292473,16.0105263 C47.2218041,17.1433599 45.5116224,17.446079 44.0798078,16.7627193 C42.6479931,16.0793595 41.8140752,14.5624223 42.0076981,12.9934512 C42.201321,11.4244801 43.3792751,10.1536132 44.9346648,9.83561595 C46.4900545,9.51761865 48.0757726,10.2234565 48.8748387,11.5894737 L45.0239785,11.5894737 C44.8365283,11.5894737 44.6845699,11.7407543 44.6845699,11.9273684 C44.6845699,12.1139825 44.8365283,12.2652632 45.0239785,12.2652632 L49.1856989,12.2652632 C49.6457554,13.5738658 49.3129687,15.0291423 48.3292473,16.0105263 L48.3292473,16.0105263 Z" id="Shape"></path>
                    <path d="M22.3058065,42.8652632 L17.7951613,47.3494737 C17.3974866,47.7453746 17.3974866,48.3872569 17.7951613,48.7831579 C18.192836,49.1790589 18.8375941,49.1790589 19.2352688,48.7831579 L23.745914,44.2989474 C24.1435887,43.9030464 24.1435887,43.2611641 23.745914,42.8652632 C23.3482393,42.4693622 22.7034812,42.4693622 22.3058065,42.8652632 L22.3058065,42.8652632 Z" id="Shape"></path>
                    <ellipse id="Oval" cx="6.07129032" cy="45.4042105" rx="1" ry="1"></ellipse>
                    <path d="M20.6055914,39.5431579 L17.5160215,42.6189474 C17.1756322,43.020889 17.2016756,43.6155178 17.5759145,43.986439 C17.9501534,44.3573601 18.5475559,44.3806501 18.9497849,44.04 L22.0393548,40.9642105 C22.3797441,40.5622689 22.3537007,39.9676401 21.9794618,39.5967189 C21.6052229,39.2257978 21.0078204,39.2025077 20.6055914,39.5431579 L20.6055914,39.5431579 Z" id="Shape"></path>
                    <ellipse id="Oval" transform="translate(6.055361, 50.434691) rotate(-45.020000) translate(-6.055361, -50.434691) " cx="6.05536097" cy="50.4346909" rx="1" ry="1"></ellipse>
                    <ellipse id="Oval" cx="2.95" cy="58.5347368" rx="1" ry="1"></ellipse>
                    <ellipse id="Oval" transform="translate(16.361453, 50.201380) rotate(-45.040000) translate(-16.361453, -50.201380) " cx="16.3614529" cy="50.2013804" rx="1" ry="1"></ellipse>
                    <ellipse id="Oval" cx="0.913548387" cy="50.5326316" rx="1" ry="1"></ellipse>
                    <ellipse id="Oval" cx="9.87774194" cy="46.6294737" rx="1" ry="1"></ellipse>
                    <path d="M14.75,36.7642105 C14.5594564,36.573294 14.3002855,36.4659348 14.0299462,36.4659348 C13.759607,36.4659348 13.5004361,36.573294 13.3098925,36.7642105 L7.49870968,42.5431579 C7.10103496,42.9390589 7.10103496,43.5809411 7.49870968,43.9768421 C7.89638439,44.3727431 8.54114249,44.3727431 8.9388172,43.9768421 L14.75,38.1978947 C14.9417719,38.008201 15.0496121,37.7501861 15.0496121,37.4810526 C15.0496121,37.2119191 14.9417719,36.9539042 14.75,36.7642105 L14.75,36.7642105 Z" id="Shape"></path>
                    <path d="M47.5489247,12.8842105 L43.7424731,12.8842105 C43.5550229,12.8842105 43.4030645,13.0354912 43.4030645,13.2221053 C43.4030645,13.4087194 43.5550229,13.56 43.7424731,13.56 L47.5489247,13.56 C47.7363749,13.56 47.8883333,13.4087194 47.8883333,13.2221053 C47.8883333,13.0354912 47.7363749,12.8842105 47.5489247,12.8842105 L47.5489247,12.8842105 Z" id="Shape"></path>
                    <ellipse id="Oval" cx="10.1505376" cy="51.3726316" rx="1" ry="1"></ellipse>
                    <path d="M21.3732258,35.1978947 C21.1826822,35.0069782 20.9235113,34.899619 20.653172,34.899619 C20.3828328,34.899619 20.1236619,35.0069782 19.9331183,35.1978947 L11.3178495,43.7684211 C10.9201748,44.164322 10.9201748,44.8062043 11.3178495,45.2021052 C11.7155242,45.5980062 12.3602823,45.5980062 12.757957,45.2021053 L21.3732258,36.6252632 C21.7684708,36.230827 21.7684708,35.5923309 21.3732258,35.1978947 L21.3732258,35.1978947 Z" id="Shape"></path>
                    <ellipse id="Oval" cx="10.7786022" cy="55.7621053" rx="1" ry="1"></ellipse>
                    <ellipse id="Oval" cx="16.075914" cy="45.48" rx="1" ry="1"></ellipse>
                </g>
            </g>
        </g>
    </g>
</svg>