<?xml version="1.0" encoding="UTF-8"?>
<svg width="250px" height="30px" viewBox="0 0 250 30" version="1.1" xmlns="http://www.w3.org/2000/svg" xmlns:xlink="http://www.w3.org/1999/xlink">
    <!-- Generator: Sketch 55 (78076) - https://sketchapp.com -->
    <title>Imagify-Logo-Gray-Colored</title>
    <desc>Created with Sketch.</desc>
    <g id="Plugin-Increase-File" stroke="none" stroke-width="1" fill="none" fill-rule="evenodd">
        <g id="IFM----More-Optimization-V2" transform="translate(-171.000000, -324.000000)" fill-rule="nonzero">
            <g id="Imagify-Logo-Gray-Colored" transform="translate(171.000000, 324.000000)">
                <g id="Group" transform="translate(0.000000, 0.528000)" fill="#7A8997">
                    <path d="M8.249,25.362 L2.46,15.302 L4.558,14.072 L3.943,12.552 L0.217,14.687 L7.634,27.567 L13.423,24.238 C13.459,23.659 13.532,23.08 13.604,22.501 L12.229,23.044 L8.249,25.359" id="Path"></path>
                    <path d="M5.897,10.564 L7.634,9.913 L7.236,8.357 L3.835,9.659 L9.045,23.371 L13.821,21.562 C14.002,20.875 14.291,20.187 14.617,19.536 L9.986,21.309 L5.898,10.564" id="Path"></path>
                    <path d="M15.01,5.933 L12.658,15.774 L19.894,14.291 C20.328,14.074 20.762,13.893 21.233,13.748 C21.776,13.567 22.318,13.422 22.861,13.314 C23.512,13.205 24.2,13.133 24.887,13.133 L24.923,13.133 L25.466,13.133 L27.022,12.807 L22.463,8.755 L20.654,10.998 L15.01,5.933" id="Path"></path>
                    <circle id="Oval" cx="23.734" cy="5.825" r="1.411"></circle>
                    <path d="M15.449,18.13 C15.956,17.37 16.571,16.719 17.222,16.104 L11.687,17.226 L9.335,5.866 L26.086,2.429 L28.401,13.681 C29.016,13.898 29.631,14.151 30.21,14.441 L27.352,0.512 L7.453,4.564 L10.453,19.144 L15.446,18.131" id="Path"></path>
                </g>
                <g id="Group" transform="translate(14.000000, 14.528000)" fill="#00A8DC">
                    <circle id="Oval" cx="10.783" cy="10.674" r="1"></circle>
                    <path d="M10.964,0.182 C5.284,0.182 0.653,4.813 0.653,10.529 C0.653,11.795 0.87,12.989 1.304,14.111 L4.777,14.111 C4.27,13.207 3.945,12.193 3.836,11.111 L2.714,11.111 C2.388,11.111 2.171,10.858 2.171,10.532 C2.171,10.206 2.424,9.953 2.714,9.953 L3.836,9.953 C3.945,8.397 4.56,7.022 5.5,5.901 L4.704,5.105 C4.487,4.888 4.487,4.526 4.704,4.309 C4.921,4.092 5.283,4.092 5.5,4.309 L6.296,5.105 C7.418,4.164 8.792,3.549 10.348,3.441 L10.348,2.283 C10.348,1.957 10.601,1.704 10.891,1.704 C11.217,1.704 11.47,1.957 11.47,2.283 L11.47,3.441 C12.881,3.55 14.183,4.092 15.269,4.924 L15.884,4.49 C16.21,4.237 16.644,4.273 16.933,4.562 C17.222,4.851 17.259,5.322 17.005,5.611 L12.41,12.123 C11.578,12.955 10.275,12.991 9.41,12.195 L9.338,12.123 C8.506,11.291 8.506,9.88 9.338,9.048 C9.447,8.939 9.519,8.867 9.627,8.795 L14.186,5.684 C13.245,5.033 12.124,4.671 10.894,4.671 C7.638,4.671 5.033,7.312 5.033,10.568 C5.033,11.907 5.467,13.137 6.227,14.114 L15.597,14.114 C16.357,13.137 16.791,11.907 16.791,10.568 C16.791,9.808 16.646,9.121 16.393,8.47 L17.225,7.312 C17.659,8.144 17.912,9.049 17.985,10.025 L19.107,10.025 C19.433,10.025 19.65,10.278 19.65,10.604 C19.65,10.93 19.397,11.183 19.107,11.183 L17.985,11.183 C17.913,12.268 17.587,13.281 17.044,14.183 L20.626,14.183 C21.024,13.061 21.277,11.868 21.277,10.601 C21.241,4.812 16.646,0.181 10.966,0.181" id="Path"></path>
                </g>
                <g id="Group" transform="translate(45.000000, 0.528000)" fill="#7A8997">
                    <path d="M5.29,0.507 L1.6,0.507 C1.202,0.507 0.84,0.869 0.84,1.267 L0.84,27.497 C0.84,27.895 1.202,28.257 1.6,28.257 L5.29,28.257 C5.688,28.257 6.05,27.895 6.05,27.497 L6.05,1.267 C6.014,0.869 5.652,0.507 5.29,0.507" id="Path"></path>
                    <path d="M45.63,0.687 C45.594,0.361 45.341,0.108 44.906,0.108 L44.255,0.108 C43.893,0.108 43.712,0.253 43.568,0.506 L34.849,19.211 L34.74,19.211 L26.021,0.506 C25.912,0.253 25.659,0.108 25.334,0.108 L24.683,0.108 C24.249,0.108 23.996,0.397 23.959,0.687 L19.256,27.315 C19.184,27.858 19.509,28.219 20.016,28.219 L23.598,28.219 C23.96,28.219 24.285,27.893 24.322,27.64 L26.637,12.63 L26.746,12.63 L33.766,28.187 C33.875,28.44 34.092,28.621 34.453,28.621 L35.177,28.621 C35.539,28.621 35.756,28.44 35.864,28.187 L42.81,12.63 L42.919,12.63 L45.271,27.64 C45.343,27.929 45.669,28.219 46.031,28.219 L49.649,28.219 C50.156,28.219 50.481,27.857 50.373,27.315 L45.633,0.687" id="Path"></path>
                    <path d="M74.1,0.543 C73.991,0.29 73.811,0.109 73.413,0.109 L73.015,0.109 C72.653,0.109 72.472,0.29 72.328,0.543 L59.991,27.207 C59.738,27.714 60.063,28.22 60.678,28.22 L64.115,28.22 C64.766,28.22 65.092,27.822 65.273,27.424 L67.227,23.155 L79.094,23.155 L81.048,27.424 C81.337,27.967 81.591,28.22 82.206,28.22 L85.643,28.22 C86.222,28.22 86.547,27.713 86.33,27.207 L74.101,0.543 M69.217,18.741 L73.088,10.022 L73.197,10.022 L77.141,18.741 L69.218,18.741" id="Shape"></path>
                    <path d="M119.33,14.472 L111.732,14.472 C111.298,14.472 110.972,14.798 110.972,15.232 L110.972,18.343 C110.972,18.741 111.298,19.067 111.732,19.067 L114.916,19.067 L114.916,22.432 C114.12,22.758 112.42,23.409 110.213,23.409 C105.22,23.409 101.313,19.248 101.313,14.329 C101.313,9.372 105.22,5.139 110.177,5.139 C112.348,5.139 114.446,5.935 116.147,7.454 C116.509,7.78 116.871,7.78 117.16,7.454 L119.62,4.885 C119.946,4.559 119.909,4.089 119.584,3.763 C116.907,1.448 113.47,0.073 109.924,0.073 C102.037,0.073 95.705,6.441 95.705,14.364 C95.705,22.287 102.036,28.546 109.924,28.546 C115.677,28.546 119.765,25.977 119.765,25.977 C119.91,25.868 120.091,25.651 120.091,25.326 L120.091,15.196 C120.019,14.834 119.729,14.472 119.331,14.472" id="Path"></path>
                    <path d="M138.21,0.507 L134.52,0.507 C134.122,0.507 133.76,0.869 133.76,1.267 L133.76,27.497 C133.76,27.895 134.122,28.257 134.52,28.257 L138.21,28.257 C138.608,28.257 138.97,27.895 138.97,27.497 L138.97,1.267 C138.97,0.869 138.608,0.507 138.21,0.507" id="Path"></path>
                    <path d="M170.96,0.507 L154.82,0.507 C154.386,0.507 154.06,0.869 154.06,1.267 L154.06,27.497 C154.06,27.895 154.386,28.257 154.82,28.257 L158.474,28.257 C158.872,28.257 159.234,27.895 159.234,27.497 L159.234,17.477 L169.002,17.477 C169.4,17.477 169.762,17.115 169.762,16.717 L169.762,13.461 C169.762,13.063 169.4,12.701 169.002,12.701 L159.234,12.701 L159.234,5.248 L170.956,5.248 C171.39,5.248 171.716,4.886 171.716,4.488 L171.716,1.232 C171.716,0.87 171.427,0.508 170.956,0.508" id="Path"></path>
                    <path d="M204.06,0.507 L199.972,0.507 C199.646,0.507 199.465,0.688 199.321,0.869 L192.99,9.986 L186.659,0.869 C186.55,0.724 186.333,0.507 186.008,0.507 L181.956,0.507 C181.305,0.507 181.015,1.158 181.305,1.665 L190.345,14.907 L190.345,27.497 C190.345,27.895 190.671,28.257 191.105,28.257 L194.759,28.257 C195.157,28.257 195.519,27.895 195.519,27.497 L195.519,14.834 L204.672,1.629 C204.998,1.122 204.672,0.507 204.057,0.507" id="Path"></path>
                </g>
            </g>
        </g>
    </g>
</svg>