<?xml version="1.0" encoding="UTF-8"?>
<svg width="307px" height="51px" viewBox="0 0 307 51" version="1.1" xmlns="http://www.w3.org/2000/svg" xmlns:xlink="http://www.w3.org/1999/xlink">
    <!-- Generator: Sketch 55 (78076) - https://sketchapp.com -->
    <title>INCREASEMAXIMUMUPLOADFILESIZE</title>
    <desc>Created with Sketch.</desc>
    <g id="Plugin-Increase-File" stroke="none" stroke-width="1" fill="none" fill-rule="evenodd">
        <g id="header" transform="translate(-25.000000, -44.000000)" fill="#FFFFFF" fill-rule="nonzero">
            <path d="M25.548,63.468 L25.548,44.932 C25.548,44.652 25.8,44.4 26.08,44.4 L28.684,44.4 C28.964,44.4 29.216,44.652 29.216,44.932 L29.216,63.468 C29.216,63.748 28.964,64 28.684,64 L26.08,64 C25.8,64 25.548,63.748 25.548,63.468 Z M36.312,63.468 L36.312,44.624 C36.312,44.344 36.564,44.12 36.844,44.12 L37.544,44.12 L49.192,56.496 L49.22,56.496 L49.22,44.932 C49.22,44.652 49.444,44.4 49.752,44.4 L52.328,44.4 C52.608,44.4 52.86,44.652 52.86,44.932 L52.86,63.776 C52.86,64.056 52.608,64.28 52.328,64.28 L51.656,64.28 L39.952,51.428 L39.924,51.428 L39.924,63.468 C39.924,63.748 39.7,64 39.392,64 L36.844,64 C36.564,64 36.312,63.748 36.312,63.468 Z M58.528,54.228 C58.528,48.628 63.036,44.12 68.636,44.12 C71.464,44.12 73.508,45.016 75.412,46.724 C75.664,46.948 75.664,47.284 75.44,47.508 L73.732,49.272 C73.536,49.496 73.256,49.496 73.032,49.272 C71.856,48.236 70.288,47.62 68.72,47.62 C65.136,47.62 62.476,50.616 62.476,54.144 C62.476,57.644 65.164,60.612 68.748,60.612 C70.428,60.612 71.856,59.968 73.032,59.016 C73.256,58.82 73.564,58.848 73.732,59.016 L75.468,60.808 C75.692,61.004 75.636,61.368 75.44,61.564 C73.536,63.412 71.128,64.28 68.636,64.28 C63.036,64.28 58.528,59.828 58.528,54.228 Z M81.108,63.468 L81.108,44.932 C81.108,44.652 81.332,44.4 81.64,44.4 L89.648,44.4 C93.008,44.4 95.752,47.088 95.752,50.42 C95.752,52.996 94.044,55.096 91.608,56.076 L95.444,63.188 C95.64,63.552 95.444,64 94.968,64 L92.028,64 C91.776,64 91.636,63.86 91.58,63.748 L87.856,56.328 L84.748,56.328 L84.748,63.468 C84.748,63.748 84.496,64 84.216,64 L81.64,64 C81.332,64 81.108,63.748 81.108,63.468 Z M84.776,53.332 L89.34,53.332 C90.824,53.332 92.112,52.044 92.112,50.476 C92.112,48.992 90.824,47.76 89.34,47.76 L84.776,47.76 L84.776,53.332 Z M101.756,63.468 L101.756,44.932 C101.756,44.652 101.98,44.4 102.288,44.4 L113.684,44.4 C113.992,44.4 114.216,44.652 114.216,44.932 L114.216,47.228 C114.216,47.508 113.992,47.76 113.684,47.76 L105.396,47.76 L105.396,52.352 L112.312,52.352 C112.592,52.352 112.844,52.604 112.844,52.884 L112.844,55.208 C112.844,55.516 112.592,55.74 112.312,55.74 L105.396,55.74 L105.396,60.64 L113.684,60.64 C113.992,60.64 114.216,60.892 114.216,61.172 L114.216,63.468 C114.216,63.748 113.992,64 113.684,64 L102.288,64 C101.98,64 101.756,63.748 101.756,63.468 Z M118.148,64 C117.728,64 117.504,63.636 117.672,63.272 L126.38,44.428 C126.464,44.26 126.604,44.12 126.856,44.12 L127.136,44.12 C127.416,44.12 127.528,44.26 127.612,44.428 L136.236,63.272 C136.404,63.636 136.18,64 135.76,64 L133.324,64 C132.904,64 132.708,63.832 132.512,63.44 L131.14,60.416 L122.768,60.416 L121.396,63.44 C121.284,63.72 121.032,64 120.584,64 L118.148,64 Z M124.14,57.308 L129.768,57.308 L126.968,51.148 L126.884,51.148 L124.14,57.308 Z M139.776,62.096 C139.524,61.844 139.384,61.704 139.636,61.256 L140.644,59.52 C140.868,59.128 141.344,59.128 141.596,59.324 C141.736,59.408 144.004,61.06 145.824,61.06 C147.28,61.06 148.372,60.108 148.372,58.904 C148.372,57.476 147.168,56.496 144.816,55.544 C142.184,54.48 139.552,52.8 139.552,49.496 C139.552,47.004 141.4,44.12 145.852,44.12 C148.708,44.12 150.892,45.576 151.452,45.996 C151.732,46.164 151.816,46.64 151.62,46.92 L150.556,48.516 C150.332,48.852 149.912,49.076 149.576,48.852 C149.352,48.712 147.224,47.312 145.684,47.312 C144.088,47.312 143.22,48.376 143.22,49.272 C143.22,50.588 144.256,51.484 146.524,52.408 C149.24,53.5 152.376,55.124 152.376,58.736 C152.376,61.62 149.884,64.28 145.936,64.28 C142.408,64.28 140.336,62.628 139.776,62.096 Z M157.96,63.468 L157.96,44.932 C157.96,44.652 158.184,44.4 158.492,44.4 L169.888,44.4 C170.196,44.4 170.42,44.652 170.42,44.932 L170.42,47.228 C170.42,47.508 170.196,47.76 169.888,47.76 L161.6,47.76 L161.6,52.352 L168.516,52.352 C168.796,52.352 169.048,52.604 169.048,52.884 L169.048,55.208 C169.048,55.516 168.796,55.74 168.516,55.74 L161.6,55.74 L161.6,60.64 L169.888,60.64 C170.196,60.64 170.42,60.892 170.42,61.172 L170.42,63.468 C170.42,63.748 170.196,64 169.888,64 L158.492,64 C158.184,64 157.96,63.748 157.96,63.468 Z M183.324,63.356 L186.656,44.54 C186.684,44.316 186.852,44.12 187.16,44.12 L187.608,44.12 C187.832,44.12 188,44.232 188.084,44.4 L194.244,57.616 L194.328,57.616 L200.488,44.4 C200.572,44.232 200.712,44.12 200.964,44.12 L201.412,44.12 C201.72,44.12 201.888,44.316 201.916,44.54 L205.22,63.356 C205.304,63.748 205.08,64 204.716,64 L202.168,64 C201.916,64 201.692,63.776 201.636,63.58 L199.984,52.968 L199.9,52.968 L195,63.972 C194.944,64.14 194.776,64.28 194.524,64.28 L194.02,64.28 C193.768,64.28 193.628,64.14 193.544,63.972 L188.588,52.968 L188.504,52.968 L186.88,63.58 C186.852,63.776 186.628,64 186.376,64 L183.856,64 C183.492,64 183.268,63.748 183.324,63.356 Z M208.984,64 C208.564,64 208.34,63.636 208.508,63.272 L217.216,44.428 C217.3,44.26 217.44,44.12 217.692,44.12 L217.972,44.12 C218.252,44.12 218.364,44.26 218.448,44.428 L227.072,63.272 C227.24,63.636 227.016,64 226.596,64 L224.16,64 C223.74,64 223.544,63.832 223.348,63.44 L221.976,60.416 L213.604,60.416 L212.232,63.44 C212.12,63.72 211.868,64 211.42,64 L208.984,64 Z M214.976,57.308 L220.604,57.308 L217.804,51.148 L217.72,51.148 L214.976,57.308 Z M229.912,63.216 L235.736,53.948 L230.136,45.184 C229.912,44.82 230.136,44.4 230.612,44.4 L233.86,44.4 C234.084,44.4 234.224,44.54 234.308,44.652 L237.892,50.588 L237.92,50.588 L241.56,44.652 C241.616,44.54 241.784,44.4 242.008,44.4 L245.256,44.4 C245.732,44.4 245.956,44.82 245.732,45.184 L240.104,53.948 L245.928,63.216 C246.152,63.608 245.928,64 245.452,64 L242.428,64 C242.204,64 242.008,63.86 241.952,63.748 L237.948,57.336 L237.864,57.336 L233.916,63.748 C233.832,63.86 233.664,64 233.44,64 L230.416,64 C229.912,64 229.688,63.58 229.912,63.216 Z M251.316,63.468 L251.316,44.932 C251.316,44.652 251.568,44.4 251.848,44.4 L254.452,44.4 C254.732,44.4 254.984,44.652 254.984,44.932 L254.984,63.468 C254.984,63.748 254.732,64 254.452,64 L251.848,64 C251.568,64 251.316,63.748 251.316,63.468 Z M260.792,63.356 L264.124,44.54 C264.152,44.316 264.32,44.12 264.628,44.12 L265.076,44.12 C265.3,44.12 265.468,44.232 265.552,44.4 L271.712,57.616 L271.796,57.616 L277.956,44.4 C278.04,44.232 278.18,44.12 278.432,44.12 L278.88,44.12 C279.188,44.12 279.356,44.316 279.384,44.54 L282.688,63.356 C282.772,63.748 282.548,64 282.184,64 L279.636,64 C279.384,64 279.16,63.776 279.104,63.58 L277.452,52.968 L277.368,52.968 L272.468,63.972 C272.412,64.14 272.244,64.28 271.992,64.28 L271.488,64.28 C271.236,64.28 271.096,64.14 271.012,63.972 L266.056,52.968 L265.972,52.968 L264.348,63.58 C264.32,63.776 264.096,64 263.844,64 L261.324,64 C260.96,64 260.736,63.748 260.792,63.356 Z M288.244,56.58 L288.244,44.932 C288.244,44.652 288.496,44.4 288.776,44.4 L291.436,44.4 C291.744,44.4 291.968,44.652 291.968,44.932 L291.968,56.384 C291.968,58.764 293.592,60.64 296.028,60.64 C298.464,60.64 300.116,58.764 300.116,56.412 L300.116,44.932 C300.116,44.652 300.34,44.4 300.648,44.4 L303.308,44.4 C303.588,44.4 303.84,44.652 303.84,44.932 L303.84,56.58 C303.84,60.836 300.452,64.28 296.028,64.28 C291.632,64.28 288.244,60.836 288.244,56.58 Z M309.368,63.356 L312.7,44.54 C312.728,44.316 312.896,44.12 313.204,44.12 L313.652,44.12 C313.876,44.12 314.044,44.232 314.128,44.4 L320.288,57.616 L320.372,57.616 L326.532,44.4 C326.616,44.232 326.756,44.12 327.008,44.12 L327.456,44.12 C327.764,44.12 327.932,44.316 327.96,44.54 L331.264,63.356 C331.348,63.748 331.124,64 330.76,64 L328.212,64 C327.96,64 327.736,63.776 327.68,63.58 L326.028,52.968 L325.944,52.968 L321.044,63.972 C320.988,64.14 320.82,64.28 320.568,64.28 L320.064,64.28 C319.812,64.28 319.672,64.14 319.588,63.972 L314.632,52.968 L314.548,52.968 L312.924,63.58 C312.896,63.776 312.672,64 312.42,64 L309.9,64 C309.536,64 309.312,63.748 309.368,63.356 Z M25.268,86.58 L25.268,74.932 C25.268,74.652 25.52,74.4 25.8,74.4 L28.46,74.4 C28.768,74.4 28.992,74.652 28.992,74.932 L28.992,86.384 C28.992,88.764 30.616,90.64 33.052,90.64 C35.488,90.64 37.14,88.764 37.14,86.412 L37.14,74.932 C37.14,74.652 37.364,74.4 37.672,74.4 L40.332,74.4 C40.612,74.4 40.864,74.652 40.864,74.932 L40.864,86.58 C40.864,90.836 37.476,94.28 33.052,94.28 C28.656,94.28 25.268,90.836 25.268,86.58 Z M47.68,93.468 L47.68,74.932 C47.68,74.652 47.904,74.4 48.212,74.4 L54.792,74.4 C58.236,74.4 61.064,77.2 61.064,80.588 C61.064,84.06 58.236,86.888 54.82,86.888 L51.32,86.888 L51.32,93.468 C51.32,93.748 51.068,94 50.788,94 L48.212,94 C47.904,94 47.68,93.748 47.68,93.468 Z M51.32,83.472 L54.568,83.472 C56.136,83.472 57.452,82.212 57.452,80.56 C57.452,79.02 56.136,77.844 54.568,77.844 L51.32,77.844 L51.32,83.472 Z M66.256,93.468 L66.256,74.932 C66.256,74.652 66.48,74.4 66.788,74.4 L69.364,74.4 C69.644,74.4 69.896,74.652 69.896,74.932 L69.896,90.64 L77.036,90.64 C77.344,90.64 77.568,90.892 77.568,91.172 L77.568,93.468 C77.568,93.748 77.344,94 77.036,94 L66.788,94 C66.48,94 66.256,93.748 66.256,93.468 Z M80.8,84.228 C80.8,78.628 85.252,74.12 90.852,74.12 C96.452,74.12 100.932,78.628 100.932,84.228 C100.932,89.828 96.452,94.28 90.852,94.28 C85.252,94.28 80.8,89.828 80.8,84.228 Z M84.44,84.228 C84.44,87.756 87.324,90.64 90.852,90.64 C94.38,90.64 97.292,87.756 97.292,84.228 C97.292,80.7 94.38,77.76 90.852,77.76 C87.324,77.76 84.44,80.7 84.44,84.228 Z M104.388,94 C103.968,94 103.744,93.636 103.912,93.272 L112.62,74.428 C112.704,74.26 112.844,74.12 113.096,74.12 L113.376,74.12 C113.656,74.12 113.768,74.26 113.852,74.428 L122.476,93.272 C122.644,93.636 122.42,94 122,94 L119.564,94 C119.144,94 118.948,93.832 118.752,93.44 L117.38,90.416 L109.008,90.416 L107.636,93.44 C107.524,93.72 107.272,94 106.824,94 L104.388,94 Z M110.38,87.308 L116.008,87.308 L113.208,81.148 L113.124,81.148 L110.38,87.308 Z M127.024,93.468 L127.024,74.932 C127.024,74.652 127.248,74.4 127.528,74.4 L134.164,74.4 C139.568,74.4 143.992,78.796 143.992,84.172 C143.992,89.604 139.568,94 134.164,94 L127.528,94 C127.248,94 127.024,93.748 127.024,93.468 Z M130.636,90.584 L133.828,90.584 C137.468,90.584 140.128,87.84 140.128,84.172 C140.128,80.532 137.468,77.788 133.828,77.788 L130.636,77.788 L130.636,90.584 Z M157.876,93.468 L157.876,74.932 C157.876,74.652 158.1,74.4 158.408,74.4 L169.804,74.4 C170.112,74.4 170.336,74.652 170.336,74.932 L170.336,77.228 C170.336,77.508 170.112,77.76 169.804,77.76 L161.516,77.76 L161.516,83.024 L168.432,83.024 C168.712,83.024 168.964,83.276 168.964,83.556 L168.964,85.852 C168.964,86.132 168.712,86.384 168.432,86.384 L161.516,86.384 L161.516,93.468 C161.516,93.748 161.264,94 160.984,94 L158.408,94 C158.1,94 157.876,93.748 157.876,93.468 Z M175.668,93.468 L175.668,74.932 C175.668,74.652 175.92,74.4 176.2,74.4 L178.804,74.4 C179.084,74.4 179.336,74.652 179.336,74.932 L179.336,93.468 C179.336,93.748 179.084,94 178.804,94 L176.2,94 C175.92,94 175.668,93.748 175.668,93.468 Z M186.432,93.468 L186.432,74.932 C186.432,74.652 186.656,74.4 186.964,74.4 L189.54,74.4 C189.82,74.4 190.072,74.652 190.072,74.932 L190.072,90.64 L197.212,90.64 C197.52,90.64 197.744,90.892 197.744,91.172 L197.744,93.468 C197.744,93.748 197.52,94 197.212,94 L186.964,94 C186.656,94 186.432,93.748 186.432,93.468 Z M202.572,93.468 L202.572,74.932 C202.572,74.652 202.796,74.4 203.104,74.4 L214.5,74.4 C214.808,74.4 215.032,74.652 215.032,74.932 L215.032,77.228 C215.032,77.508 214.808,77.76 214.5,77.76 L206.212,77.76 L206.212,82.352 L213.128,82.352 C213.408,82.352 213.66,82.604 213.66,82.884 L213.66,85.208 C213.66,85.516 213.408,85.74 213.128,85.74 L206.212,85.74 L206.212,90.64 L214.5,90.64 C214.808,90.64 215.032,90.892 215.032,91.172 L215.032,93.468 C215.032,93.748 214.808,94 214.5,94 L203.104,94 C202.796,94 202.572,93.748 202.572,93.468 Z M228.216,92.096 C227.964,91.844 227.824,91.704 228.076,91.256 L229.084,89.52 C229.308,89.128 229.784,89.128 230.036,89.324 C230.176,89.408 232.444,91.06 234.264,91.06 C235.72,91.06 236.812,90.108 236.812,88.904 C236.812,87.476 235.608,86.496 233.256,85.544 C230.624,84.48 227.992,82.8 227.992,79.496 C227.992,77.004 229.84,74.12 234.292,74.12 C237.148,74.12 239.332,75.576 239.892,75.996 C240.172,76.164 240.256,76.64 240.06,76.92 L238.996,78.516 C238.772,78.852 238.352,79.076 238.016,78.852 C237.792,78.712 235.664,77.312 234.124,77.312 C232.528,77.312 231.66,78.376 231.66,79.272 C231.66,80.588 232.696,81.484 234.964,82.408 C237.68,83.5 240.816,85.124 240.816,88.736 C240.816,91.62 238.324,94.28 234.376,94.28 C230.848,94.28 228.776,92.628 228.216,92.096 Z M246.4,93.468 L246.4,74.932 C246.4,74.652 246.652,74.4 246.932,74.4 L249.536,74.4 C249.816,74.4 250.068,74.652 250.068,74.932 L250.068,93.468 C250.068,93.748 249.816,94 249.536,94 L246.932,94 C246.652,94 246.4,93.748 246.4,93.468 Z M255.316,93.468 L255.316,92.964 L263.66,77.9 L263.66,77.788 L256.66,77.788 C256.38,77.788 256.128,77.536 256.128,77.256 L256.128,74.932 C256.128,74.652 256.38,74.4 256.66,74.4 L268.364,74.4 C268.644,74.4 268.896,74.652 268.896,74.932 L268.896,75.296 L260.664,90.556 L260.664,90.612 L267.804,90.612 C268.112,90.612 268.336,90.864 268.336,91.144 L268.336,93.468 C268.336,93.748 268.112,94 267.804,94 L255.848,94 C255.568,94 255.316,93.748 255.316,93.468 Z M274.228,93.468 L274.228,74.932 C274.228,74.652 274.452,74.4 274.76,74.4 L286.156,74.4 C286.464,74.4 286.688,74.652 286.688,74.932 L286.688,77.228 C286.688,77.508 286.464,77.76 286.156,77.76 L277.868,77.76 L277.868,82.352 L284.784,82.352 C285.064,82.352 285.316,82.604 285.316,82.884 L285.316,85.208 C285.316,85.516 285.064,85.74 284.784,85.74 L277.868,85.74 L277.868,90.64 L286.156,90.64 C286.464,90.64 286.688,90.892 286.688,91.172 L286.688,93.468 C286.688,93.748 286.464,94 286.156,94 L274.76,94 C274.452,94 274.228,93.748 274.228,93.468 Z" id="INCREASEMAXIMUMUPLOADFILESIZE"></path>
        </g>
    </g>
</svg>