<?xml version="1.0" encoding="UTF-8"?>
<svg width="65px" height="66px" viewBox="0 0 65 66" version="1.1" xmlns="http://www.w3.org/2000/svg" xmlns:xlink="http://www.w3.org/1999/xlink">
    <!-- Generator: Sketch 55 (78076) - https://sketchapp.com -->
    <title>Group 3 Copy</title>
    <desc>Created with Sketch.</desc>
    <defs>
        <rect id="path-1" x="0" y="0.580078125" width="65" height="65"></rect>
    </defs>
    <g id="Plugin-Increase-File" stroke="none" stroke-width="1" fill="none" fill-rule="evenodd">
        <g id="IFM---About-Us-VS" transform="translate(-593.000000, -795.000000)">
            <g id="Group-3-Copy" transform="translate(593.000000, 795.000000)">
                <g id="Bitmap">
                    <mask id="mask-2" fill="white">
                        <use xlink:href="#path-1"></use>
                    </mask>
                    <use id="Mask" fill="#F56640" xlink:href="#path-1"></use>
                </g>
                <g id="heartbeat-icon" transform="translate(17.000000, 7.419922)" fill="#FFFFFF" fill-rule="nonzero">
                    <path d="M23.3268266,16.9714453 C22.9594815,16.9714453 22.6278285,16.7584057 22.4815854,16.4300597 L21.5608536,14.3585508 L18.1309303,20.5542708 C17.9695258,20.8456201 17.6577721,21.0259792 17.3201178,21.0259792 C17.3100102,21.0259792 17.2999027,21.0259792 17.2897952,21.0256709 C16.9404541,21.0145719 16.6280686,20.8117064 16.482773,20.5018588 L12.6810825,12.4199219 L10.7846593,16.4544159 C10.6349417,16.7741293 10.3073949,16.9788446 9.94731456,16.9788446 L5,16.9788446 L17.488787,29.4045066 L17.488787,29.4199219 L17.4963676,29.4122142 L17.5039482,29.4199219 L17.5039482,29.4045066 L30,16.9714453 L23.3268266,16.9714453 Z" id="Path"></path>
                    <path d="M2.37624212,15.3327375 L2.44149877,15.3984831 L8.71481653,15.3984831 L11.2466459,9.94731587 C11.3990186,9.61795268 11.732374,9.40705861 12.0988399,9.40705861 C12.4653058,9.40705861 12.7986612,9.61795268 12.9510339,9.94699826 L16.8882922,18.4199219 L20.4034718,11.9930519 C20.5735248,11.6811574 20.9113807,11.4924961 21.2688457,11.5077415 C21.627918,11.5233044 21.9458432,11.7392803 22.0888935,12.0648321 L23.5492923,15.3908604 L31.5655734,15.3908604 L31.623115,15.3327375 L31.6137926,15.3305142 C33.0905859,13.7462678 34,11.6376446 34,9.31431603 C34,4.40213563 29.968875,0.419921875 24.9958683,0.419921875 C21.5128348,0.419921875 18.4975276,2.37704431 17.0001607,5.23554836 C15.5024724,2.37704431 12.4874866,0.419921875 9.00413172,0.419921875 C4.03144648,0.419921875 0,4.40213563 0,9.31431603 C0,11.6376446 0.909414089,13.7462678 2.38620742,15.3305142 L2.37624212,15.3327375 Z" id="Path"></path>
                </g>
                <g id="Group-7" transform="translate(7.000000, 42.419922)" fill-rule="nonzero">
                    <polygon id="Path" fill="#FFFFFF" points="5.6775937 1.64313008e-14 5.6775937 6.62004662 4.15365693 6.62004662 4.15365693 3.90675991 1.52393677 3.90675991 1.52393677 6.62004662 -4.35207426e-14 6.62004662 -4.35207426e-14 1.64313008e-14 1.52393677 1.64313008e-14 1.52393677 2.56410256 4.15365693 2.56410256 4.15365693 1.64313008e-14"></polygon>
                    <polygon id="Path" fill="#FFFFFF" points="11.6056968 5.27738928 11.6056968 6.62004662 6.96884037 6.62004662 6.96884037 1.64313008e-14 11.5220661 1.64313008e-14 11.5220661 1.34265734 8.49277714 1.34265734 8.49277714 2.62937063 11.0946204 2.62937063 11.0946204 3.86946387 8.49277714 3.86946387 8.49277714 5.27738928"></polygon>
                    <polygon id="Path" fill="#FFFFFF" points="14.3558341 1.64313008e-14 15.7310941 1.64313008e-14 18.1377992 6.62004662 16.5766932 6.62004662 16.0656168 5.13752914 14.0120191 5.13752914 13.5102351 6.62004662 11.9491291 6.62004662"></polygon>
                    <polygon id="Path" fill="#F56640" points="15.8147248 4.08391608 15.0434641 1.74358974 14.2536188 4.08391608"></polygon>
                    <path d="M18.8157542,6.62004662 L18.8157542,1.64313008e-14 L21.7892894,1.64313008e-14 C22.0990341,1.64313008e-14 22.3855438,0.0652674126 22.6488269,0.195804196 C22.9121099,0.326340979 23.1397689,0.497279441 23.3318107,0.708624709 C23.5238525,0.919969977 23.6740765,1.15928382 23.7824871,1.42657343 C23.8908978,1.69386303 23.9451023,1.9642566 23.9451023,2.23776224 C23.9451023,2.44289147 23.9203231,2.64024769 23.870764,2.82983683 C23.8212048,3.01942597 23.7499646,3.19813436 23.6570411,3.36596737 C23.5641177,3.53380037 23.4510625,3.68453702 23.3178723,3.81818182 C23.184682,3.95182662 23.034458,4.0652676 22.8671958,4.15850816 L24.3167942,6.62004662 L22.5977192,6.62004662 L21.3339668,4.48484848 L20.339691,4.48484848 L20.339691,6.62004662 L18.8157542,6.62004662 Z" id="Path" fill="#FFFFFF"></path>
                    <path d="M20.339691,3.15151515 L21.7335356,3.15151515 C21.9131875,3.15151515 22.0680576,3.06604592 22.1981504,2.8951049 C22.3282433,2.72416387 22.3932887,2.50505184 22.3932887,2.23776224 C22.3932887,1.9642566 22.318951,1.74669855 22.1702735,1.58508159 C22.021596,1.42346462 21.8605312,1.34265734 21.6870741,1.34265734 L20.339691,1.34265734 L20.339691,3.15151515 Z" id="Path" fill="#F56640"></path>
                    <polygon id="Path" fill="#FFFFFF" points="29.8917624 1.34265734 27.8846262 1.34265734 27.8846262 6.62004662 26.3606894 6.62004662 26.3606894 1.34265734 24.3442609 1.34265734 24.3442609 1.64313008e-14 29.8917624 1.64313008e-14"></polygon>
                    <path d="M36.117219,4.92307692 C36.117219,5.20901464 36.0583684,5.4576524 35.9406654,5.66899767 C35.8229623,5.88034294 35.6618975,6.05594336 35.4574659,6.1958042 C35.2530343,6.33566503 35.0145344,6.44133608 34.741959,6.51282051 C34.4693836,6.58430494 34.1813252,6.62004662 33.8777754,6.62004662 L30.6626405,6.62004662 L30.6626405,1.64313008e-14 L34.3330979,1.64313008e-14 C34.5623091,1.64313008e-14 34.769835,0.0497275524 34.9556818,0.149184149 C35.1415287,0.248640746 35.2994962,0.377621585 35.429589,0.536130536 C35.5596818,0.694639487 35.6603474,0.874901865 35.7315887,1.07692308 C35.80283,1.27894429 35.8384501,1.48562443 35.8384501,1.6969697 C35.8384501,2.0139876 35.7594664,2.31235291 35.6014965,2.59207459 C35.4435267,2.87179627 35.2065755,3.08313837 34.8906358,3.22610723 C35.2685244,3.3379959 35.5674237,3.53690611 35.7873425,3.82284382 C36.0072613,4.10878154 36.117219,4.47552224 36.117219,4.92307692 Z" id="Path" fill="#FFFFFF"></path>
                    <path d="M34.5654054,4.61538462 C34.5654054,4.41025538 34.5065547,4.23620895 34.3888517,4.09324009 C34.2711487,3.95027124 34.1224734,3.87878788 33.9428214,3.87878788 L32.1865772,3.87878788 L32.1865772,5.32400932 L33.8777754,5.32400932 C34.076012,5.32400932 34.2401743,5.25874191 34.3702671,5.12820513 C34.5003599,4.99766834 34.5654054,4.82672988 34.5654054,4.61538462 Z" id="Path" fill="#F56640"></path>
                    <path d="M32.1865772,1.30536131 L32.1865772,2.67599068 L33.6826371,2.67599068 C33.8498993,2.67599068 33.9985746,2.62004718 34.1286674,2.50815851 C34.2587602,2.39626984 34.3238056,2.2222234 34.3238056,1.98601399 C34.3238056,1.76845268 34.2665037,1.60062219 34.1518981,1.48251748 C34.0372925,1.36441277 33.8994582,1.30536131 33.7383909,1.30536131 L32.1865772,1.30536131 Z" id="Path" fill="#F56640"></path>
                    <polygon id="Path" fill="#FFFFFF" points="41.6829225 5.27738928 41.6829225 6.62004662 37.0460661 6.62004662 37.0460661 1.64313008e-14 41.5992918 1.64313008e-14 41.5992918 1.34265734 38.5700029 1.34265734 38.5700029 2.62937063 41.1718461 2.62937063 41.1718461 3.86946387 38.5700029 3.86946387 38.5700029 5.27738928"></polygon>
                    <polygon id="Path" fill="#FFFFFF" points="44.4330598 1.64313008e-14 45.8083198 1.64313008e-14 48.2150249 6.62004662 46.6539189 6.62004662 46.1428426 5.13752914 44.0892448 5.13752914 43.5874608 6.62004662 42.0263548 6.62004662"></polygon>
                    <polygon id="Path" fill="#F56640" points="45.8919505 4.08391608 45.1206898 1.74358974 44.3308446 4.08391608"></polygon>
                    <polygon id="Path" fill="#FFFFFF" points="52.6190158 1.34265734 50.6118796 1.34265734 50.6118796 6.62004662 49.0879428 6.62004662 49.0879428 1.34265734 47.0715143 1.34265734 47.0715143 1.64313008e-14 52.6190158 1.64313008e-14"></polygon>
                </g>
                <g id="Group-5" transform="translate(11.000000, 51.419922)" fill-rule="nonzero">
                    <path d="M2.12274642e-13,3.29137529 C2.12274642e-13,2.8935489 0.0743376357,2.49728247 0.223015137,2.1025641 C0.371692639,1.70784573 0.588510743,1.35509091 0.873475954,1.04428904 C1.15844117,0.733487179 1.50535013,0.481741445 1.91421326,0.289044289 C2.32307639,0.0963471329 2.78768661,4.97379915e-14 3.30805787,4.97379915e-14 C3.92754746,4.97379915e-14 4.46494662,0.133642797 4.92027147,0.400932401 C5.37559632,0.668222005 5.71476178,1.01631487 5.93777803,1.44522145 L4.76694856,2.26573427 C4.69260981,2.09168522 4.59813906,1.94716452 4.48353349,1.83216783 C4.36892792,1.71717114 4.24348315,1.62393198 4.10719545,1.55244755 C3.97090774,1.48096312 3.83152467,1.43123557 3.68904206,1.4032634 C3.54655946,1.37529124 3.40717639,1.36130536 3.27088868,1.36130536 C2.97972857,1.36130536 2.72574165,1.42035683 2.50892029,1.53846154 C2.29209894,1.65656625 2.11244965,1.80885688 1.96996705,1.995338 C1.82748444,2.18181911 1.72217279,2.39316121 1.65402893,2.62937063 C1.58588508,2.86558005 1.55181366,3.10489389 1.55181366,3.34731935 C1.55181366,3.60839291 1.59207988,3.86013865 1.67261353,4.1025641 C1.75314718,4.34498956 1.86929973,4.55943963 2.02107468,4.74592075 C2.17284963,4.93240186 2.35559632,5.08003054 2.56932023,5.18881119 C2.78304414,5.29759184 3.02309275,5.35198135 3.28947328,5.35198135 C3.42576098,5.35198135 3.56669275,5.33488751 3.71227281,5.3006993 C3.85785286,5.2665111 3.99723593,5.21367557 4.13042619,5.14219114 C4.26361645,5.07070671 4.38596381,4.97746755 4.49747194,4.86247086 C4.60898006,4.74747417 4.6988047,4.60606145 4.76694856,4.43822844 L6.01211641,5.17482517 C5.91299808,5.41725063 5.7658715,5.63480867 5.57073228,5.82750583 C5.37559306,6.02020298 5.15103145,6.18181753 4.89704072,6.31235431 C4.64304999,6.4428911 4.37357606,6.5423462 4.08861085,6.61072261 C3.80364564,6.67909902 3.52487951,6.71328671 3.25230409,6.71328671 C2.7752971,6.71328671 2.33701479,6.61538559 1.93744401,6.41958042 C1.53787322,6.22377524 1.19406165,5.96425958 0.905998995,5.64102564 C0.617936336,5.3177917 0.394923429,4.951051 0.236953583,4.54079254 C0.0789837379,4.13053408 2.12274642e-13,3.71406583 2.12274642e-13,3.29137529 Z" id="Path" fill="#FFFFFF"></path>
                    <path d="M9.5613738,6.71328671 C9.07197703,6.71328671 8.62595121,6.61693958 8.22328298,6.42424242 C7.82061475,6.23154527 7.47680318,5.97824555 7.19183797,5.66433566 C6.90687276,5.35042578 6.68540855,4.99145501 6.52743871,4.58741259 C6.36946886,4.18337016 6.29048512,3.76690191 6.29048512,3.33799534 C6.29048512,2.90287273 6.37256626,2.4832965 6.536731,2.07925408 C6.70089574,1.67521166 6.93010345,1.31934886 7.22436101,1.01165501 C7.51861856,0.703961166 7.86707623,0.458431375 8.26974447,0.275058275 C8.6724127,0.0916851748 9.11224371,4.97379915e-14 9.58925069,4.97379915e-14 C10.0786475,4.97379915e-14 10.5246733,0.0963471329 10.9273415,0.289044289 C11.3300098,0.481741445 11.6738213,0.736595152 11.9587865,1.05361305 C12.2437517,1.37063096 12.4636672,1.73115571 12.6185396,2.13519814 C12.773412,2.53924056 12.8508471,2.94949287 12.8508471,3.36596737 C12.8508471,3.80108998 12.7687659,4.2206662 12.6046012,4.62470862 C12.4404365,5.02875105 12.2127774,5.38461385 11.9216173,5.69230769 C11.6304572,6.00000154 11.2835483,6.24708531 10.88088,6.43356643 C10.4782118,6.62004755 10.0383808,6.71328671 9.5613738,6.71328671 Z" id="Path" fill="#FFFFFF"></path>
                    <path d="M7.84229879,3.35664336 C7.84229879,3.61150089 7.8794676,3.85858466 7.95380635,4.0979021 C8.02814511,4.33721953 8.13810286,4.55011562 8.28368291,4.73659674 C8.42926297,4.92307786 8.61046095,5.07226051 8.82728231,5.18414918 C9.04410367,5.29603786 9.29189578,5.35198135 9.5706661,5.35198135 C9.86182621,5.35198135 10.1158131,5.29292988 10.3326345,5.17482517 C10.5494558,5.05672047 10.7291051,4.90287585 10.8715877,4.71328671 C11.0140703,4.52369758 11.1209307,4.30924751 11.192172,4.06993007 C11.2634133,3.83061263 11.2990334,3.58663683 11.2990334,3.33799534 C11.2990334,3.08313781 11.2618646,2.83605403 11.1875258,2.5967366 C11.1131871,2.35741916 11.0016806,2.14607706 10.8530031,1.96270396 C10.7043256,1.77933086 10.5231277,1.63325618 10.3094037,1.52447552 C10.0956798,1.41569487 9.84943642,1.36130536 9.5706661,1.36130536 C9.27950599,1.36130536 9.02706777,1.41880284 8.81334386,1.53379953 C8.59961995,1.64879622 8.41997067,1.79953287 8.27439061,1.98601399 C8.12881056,2.1724951 8.02040151,2.38539119 7.94916021,2.62470862 C7.8779189,2.86402606 7.84229879,3.10800186 7.84229879,3.35664336 Z" id="Path" fill="#F56640"></path>
                    <polygon id="Path" fill="#FFFFFF" points="15.2850463 2.87179487 15.2850463 6.65734266 13.7611095 6.65734266 13.7611095 0.0372960373 14.9505236 0.0372960373 18.026274 3.92540793 18.026274 0.0372960373 19.5502108 0.0372960373 19.5502108 6.65734266 18.3236276 6.65734266"></polygon>
                    <polygon id="Path" fill="#FFFFFF" points="25.8685904 1.37995338 23.8614541 1.37995338 23.8614541 6.65734266 22.3375174 6.65734266 22.3375174 1.37995338 20.3210888 1.37995338 20.3210888 0.0372960373 25.8685904 0.0372960373"></polygon>
                    <path d="M26.6394684,6.65734266 L26.6394684,0.0372960373 L29.6130035,0.0372960373 C29.9227483,0.0372960373 30.209258,0.10256345 30.4725411,0.233100233 C30.7358241,0.363637016 30.9634831,0.534575478 31.1555249,0.745920746 C31.3475667,0.957266014 31.4977907,1.19657986 31.6062013,1.46386946 C31.714612,1.73115907 31.7688165,2.00155263 31.7688165,2.27505828 C31.7688165,2.48018751 31.7440373,2.67754373 31.6944782,2.86713287 C31.644919,3.056722 31.5736788,3.2354304 31.4807553,3.4032634 C31.3878319,3.57109641 31.2747767,3.72183305 31.1415865,3.85547786 C31.0083962,3.98912266 30.8581722,4.10256364 30.69091,4.1958042 L32.1405084,6.65734266 L30.4214334,6.65734266 L29.157681,4.52214452 L28.1634052,4.52214452 L28.1634052,6.65734266 L26.6394684,6.65734266 Z" id="Path" fill="#FFFFFF"></path>
                    <path d="M28.1634052,3.18881119 L29.5572498,3.18881119 C29.7369017,3.18881119 29.8917718,3.10334196 30.0218646,2.93240093 C30.1519574,2.76145991 30.2170029,2.54234788 30.2170029,2.27505828 C30.2170029,2.00155263 30.1426652,1.78399459 29.9939877,1.62237762 C29.8453102,1.46076065 29.6842454,1.37995338 29.5107883,1.37995338 L28.1634052,1.37995338 L28.1634052,3.18881119 Z" id="Path" fill="#F56640"></path>
                    <path d="M35.7827063,6.71328671 C35.2933096,6.71328671 34.8472837,6.61693958 34.4446155,6.42424242 C34.0419473,6.23154527 33.6981357,5.97824555 33.4131705,5.66433566 C33.1282053,5.35042578 32.9067411,4.99145501 32.7487712,4.58741259 C32.5908014,4.18337016 32.5118177,3.76690191 32.5118177,3.33799534 C32.5118177,2.90287273 32.5938988,2.4832965 32.7580635,2.07925408 C32.9222283,1.67521166 33.151436,1.31934886 33.4456935,1.01165501 C33.7399511,0.703961166 34.0884088,0.458431375 34.491077,0.275058275 C34.8937452,0.0916851748 35.3335762,4.97379915e-14 35.8105832,4.97379915e-14 C36.29998,4.97379915e-14 36.7460058,0.0963471329 37.1486741,0.289044289 C37.5513423,0.481741445 37.8951538,0.736595152 38.1801191,1.05361305 C38.4650843,1.37063096 38.6849998,1.73115571 38.8398722,2.13519814 C38.9947446,2.53924056 39.0721796,2.94949287 39.0721796,3.36596737 C39.0721796,3.80108998 38.9900985,4.2206662 38.8259337,4.62470862 C38.661769,5.02875105 38.43411,5.38461385 38.1429499,5.69230769 C37.8517898,6.00000154 37.5048808,6.24708531 37.1022126,6.43356643 C36.6995443,6.62004755 36.2597133,6.71328671 35.7827063,6.71328671 Z" id="Path" fill="#FFFFFF"></path>
                    <path d="M34.0636313,3.35664336 C34.0636313,3.61150089 34.1008001,3.85858466 34.1751389,4.0979021 C34.2494776,4.33721953 34.3594354,4.55011562 34.5050154,4.73659674 C34.6505955,4.92307786 34.8317935,5.07226051 35.0486148,5.18414918 C35.2654362,5.29603786 35.5132283,5.35198135 35.7919986,5.35198135 C36.0831587,5.35198135 36.3371457,5.29292988 36.553967,5.17482517 C36.7707884,5.05672047 36.9504377,4.90287585 37.0929203,4.71328671 C37.2354029,4.52369758 37.3422632,4.30924751 37.4135045,4.06993007 C37.4847458,3.83061263 37.5203659,3.58663683 37.5203659,3.33799534 C37.5203659,3.08313781 37.4831971,2.83605403 37.4088584,2.5967366 C37.3345196,2.35741916 37.2230132,2.14607706 37.0743357,1.96270396 C36.9256582,1.77933086 36.7444602,1.63325618 36.5307363,1.52447552 C36.3170124,1.41569487 36.0707689,1.36130536 35.7919986,1.36130536 C35.5008385,1.36130536 35.2484003,1.41880284 35.0346764,1.53379953 C34.8209525,1.64879622 34.6413032,1.79953287 34.4957231,1.98601399 C34.3501431,2.1724951 34.241734,2.38539119 34.1704927,2.62470862 C34.0992514,2.86402606 34.0636313,3.10800186 34.0636313,3.35664336 Z" id="Path" fill="#F56640"></path>
                    <polygon id="Path" fill="#FFFFFF" points="39.9824421 6.65734266 39.9824421 0.0372960373 41.5063789 0.0372960373 41.5063789 5.31468531 44.7029292 5.31468531 44.7029292 6.65734266"></polygon>
                </g>
            </g>
        </g>
    </g>
</svg>