<?xml version="1.0" encoding="UTF-8"?>
<svg width="48px" height="60px" viewBox="0 0 48 60" version="1.1" xmlns="http://www.w3.org/2000/svg" xmlns:xlink="http://www.w3.org/1999/xlink">
    <!-- Generator: Sketch 55 (78076) - https://sketchapp.com -->
    <title>Shape</title>
    <desc>Created with Sketch.</desc>
    <g id="Plugin-Increase-File" stroke="none" stroke-width="1" fill="none" fill-rule="evenodd">
        <g id="IFM----More-Optimization-V2" transform="translate(-629.000000, -750.000000)" fill="#FFFFFF">
            <g id="Group-4" transform="translate(171.000000, 667.000000)">
                <path d="M484.820619,83.0374766 C484.721649,83.0374766 484.721649,83.0374766 484.820619,83.0374766 L461.958763,83.0374766 C459.781443,83.0374766 458,84.8363523 458,87.0349781 L458,135.404747 C458,137.603373 459.781443,139.402249 461.958763,139.402249 L463.938144,139.402249 L463.938144,140.001874 C463.938144,141.600874 465.224742,143 466.907216,143 L503.030928,143 C504.614433,143 506,141.600874 506,140.001874 L506,126.710181 C506,125.111181 504.614433,123.712055 503.030928,123.712055 L500.358763,123.712055 L500.358763,98.32792 C500.457732,98.128045 500.358763,97.8282324 500.259794,97.6283573 L500.259794,97.6283573 C500.259794,97.5284197 500.160825,97.5284197 500.160825,97.4284822 L500.160825,97.4284822 C500.160825,97.4284822 500.160825,97.4284822 500.061856,97.4284822 L500.061856,97.4284822 C500.061856,97.4284822 500.061856,97.4284822 499.962887,97.4284822 L499.962887,97.4284822 L485.513402,83.4372267 C485.513402,83.4372267 485.513402,83.4372267 485.414433,83.3372892 C485.315464,83.0374766 485.117526,82.937539 484.820619,83.0374766 L484.820619,83.0374766 L484.820619,83.0374766 Z M461.958763,85.0362274 L483.929897,85.0362274 L483.929897,95.0299813 C483.929897,97.2286071 485.71134,99.0274828 487.88866,99.0274828 L498.379381,99.0274828 L498.379381,123.712055 L466.907216,123.712055 C465.323711,123.712055 463.938144,125.111181 463.938144,126.710181 L463.938144,137.403498 L461.958763,137.403498 C460.870103,137.403498 459.979381,136.50406 459.979381,135.404747 L459.979381,87.0349781 C459.979381,85.9356652 460.870103,85.0362274 461.958763,85.0362274 L461.958763,85.0362274 Z M485.909278,86.3354154 L496.004124,96.1292942 L496.894845,97.028732 L487.88866,97.028732 C486.8,97.028732 485.909278,96.1292942 485.909278,95.0299813 L485.909278,86.3354154 L485.909278,86.3354154 Z M468.985567,100.126796 C466.808247,100.126796 465.026804,101.925671 465.026804,104.124297 C465.026804,106.322923 466.808247,108.121799 468.985567,108.121799 C471.162887,108.121799 472.94433,106.322923 472.94433,104.124297 C472.94433,101.925671 471.162887,100.126796 468.985567,100.126796 L468.985567,100.126796 Z M468.985567,102.125547 C470.074227,102.125547 470.964948,103.024984 470.964948,104.124297 C470.964948,105.22361 470.074227,106.123048 468.985567,106.123048 C467.896907,106.123048 467.006186,105.22361 467.006186,104.124297 C467.006186,102.925047 467.896907,102.125547 468.985567,102.125547 L468.985567,102.125547 Z M474.923711,108.621487 C474.626804,108.621487 474.428866,108.821362 474.230928,109.021237 L464.630928,120.713929 C464.334021,121.113679 464.334021,121.813242 464.828866,122.113054 C465.224742,122.412867 465.917526,122.412867 466.214433,122.013117 L475.02268,111.3198 L483.731959,122.013117 C484.127835,122.412867 484.721649,122.512804 485.117526,122.113054 C485.513402,121.713304 485.612371,121.113679 485.216495,120.713929 L485.216495,120.713929 L483.435052,118.515303 L486.503093,115.317302 L491.847423,122.013117 C492.14433,122.412867 492.837113,122.512804 493.23299,122.212992 C493.628866,121.913179 493.727835,121.213616 493.430928,120.813866 L493.430928,120.813866 L487.393814,113.218613 C487.195876,112.918801 486.898969,112.818863 486.503093,112.818863 C486.305155,112.818863 486.008247,112.918801 485.909278,113.118676 L482.247423,117.01624 L475.715464,109.021237 C475.715464,108.721424 475.418557,108.621487 474.923711,108.621487 L474.923711,108.621487 L474.923711,108.621487 L474.923711,108.621487 Z M466.907216,125.710806 L503.030928,125.710806 C503.624742,125.710806 504.020619,126.110556 504.020619,126.710181 L504.020619,140.001874 C504.020619,140.601499 503.624742,141.001249 503.030928,141.001249 L466.907216,141.001249 C466.313402,141.001249 465.917526,140.601499 465.917526,140.001874 L465.917526,126.710181 C465.917526,126.110556 466.313402,125.710806 466.907216,125.710806 L466.907216,125.710806 Z M491.154639,129.408495 C490.659794,129.408495 490.263918,129.60837 489.868041,129.808245 C489.274227,130.108057 488.779381,130.607745 488.383505,131.20737 C488.086598,131.806996 487.88866,132.506558 487.88866,133.306059 C487.88866,134.005621 488.086598,134.705184 488.383505,135.404747 C488.680412,136.004372 489.076289,136.50406 489.670103,136.803873 C490.263918,137.103685 490.956701,137.30356 491.748454,137.30356 C492.342268,137.30356 493.035052,137.203623 493.628866,137.003748 C494.22268,136.803873 494.717526,136.50406 495.014433,136.204247 L495.014433,133.106184 L491.748454,133.106184 L491.748454,134.405372 L493.430928,134.405372 L493.430928,135.404747 C493.23299,135.604622 492.936082,135.70456 492.639175,135.904435 C492.342268,136.004372 492.045361,136.10431 491.649485,136.10431 C490.956701,136.10431 490.461856,135.904435 490.065979,135.404747 C489.670103,134.905059 489.472165,134.205497 489.472165,133.306059 C489.472165,132.506558 489.670103,131.806996 490.065979,131.407245 C490.461856,131.007495 490.956701,130.707683 491.649485,130.707683 C492.045361,130.707683 492.441237,130.80762 492.738144,131.007495 C493.035052,131.20737 493.23299,131.507183 493.331959,131.906933 L494.816495,131.607121 C494.618557,130.907558 494.321649,130.307933 493.826804,129.908182 C493.331959,129.508432 492.540206,129.308557 491.649485,129.308557 C491.451546,129.408495 491.352577,129.408495 491.154639,129.408495 L491.154639,129.408495 L491.154639,129.408495 Z M473.439175,129.508432 L473.439175,137.203623 L474.923711,137.203623 L474.923711,134.305434 L475.913402,134.305434 C476.606186,134.305434 477.101031,134.305434 477.496907,134.205497 C477.793814,134.105559 477.991753,134.005621 478.28866,133.805746 C478.585567,133.605871 478.783505,133.405996 478.981443,133.006246 C479.179381,132.706433 479.179381,132.306683 479.179381,131.806996 C479.179381,131.20737 479.080412,130.707683 478.783505,130.307933 C478.486598,129.908182 478.090722,129.708307 477.694845,129.508432 C477.397938,129.408495 476.804124,129.408495 475.913402,129.408495 L473.439175,129.508432 L473.439175,129.508432 L473.439175,129.508432 Z M480.465979,129.508432 L480.465979,137.203623 L481.851546,137.203623 L481.851546,132.206746 L484.919588,137.203623 L486.503093,137.203623 L486.503093,129.508432 L485.117526,129.508432 L485.117526,134.605247 L481.950515,129.508432 L480.465979,129.508432 L480.465979,129.508432 Z M474.923711,130.907558 L475.616495,130.907558 L476.705155,130.907558 C477.002062,130.907558 477.2,131.107433 477.298969,131.20737 C477.496907,131.407245 477.496907,131.607121 477.496907,131.906933 C477.496907,132.106808 477.397938,132.306683 477.298969,132.506558 C477.2,132.706433 477.002062,132.806371 476.804124,132.906309 C476.606186,133.006246 476.210309,133.006246 475.616495,133.006246 L474.725773,133.006246 L474.725773,130.907558 L474.923711,130.907558 L474.923711,130.907558 Z M470.470103,135.804497 L470.470103,137.30356 L471.954639,137.30356 L471.954639,135.804497 L470.470103,135.804497 L470.470103,135.804497 Z" id="Shape"></path>
            </g>
        </g>
    </g>
</svg>