<?xml version="1.0" encoding="UTF-8"?>
<svg width="56px" height="60px" viewBox="0 0 56 60" version="1.1" xmlns="http://www.w3.org/2000/svg" xmlns:xlink="http://www.w3.org/1999/xlink">
    <!-- Generator: Sketch 55 (78076) - https://sketchapp.com -->
    <title>Calque_1</title>
    <desc>Created with Sketch.</desc>
    <g id="Plugin-Increase-File" stroke="none" stroke-width="1" fill="none" fill-rule="evenodd">
        <g id="IFM----More-Optimization-V2" transform="translate(-838.000000, -750.000000)" fill="#FFFFFF">
            <g id="Group-4" transform="translate(171.000000, 667.000000)">
                <g id="Calque_1" transform="translate(667.000000, 83.000000)">
                    <path d="M18.8646716,20.7542857 C18.878128,18.2388603 17.3714397,15.9854678 15.099204,15.1226788 C12.8269682,14.2598899 10.2784568,14.9734854 8.73004517,16.9060741 C7.18163349,18.8386628 6.96673503,21.5741078 8.19297776,23.7424115 C9.41922049,25.9107152 11.8225623,27.0449851 14.1993333,26.5771429 C16.887985,26.0365376 18.8386927,23.601839 18.8646716,20.7542857 L18.8646716,20.7542857 Z M9.69884804,20.7542857 C9.69884804,17.5028571 13.7377451,16 15.7434559,18.4685714 C17.7491667,20.9371429 15.6280588,24.8228571 12.5453088,24.2571429 C10.9158905,23.9454864 9.7272111,22.4770267 9.70983824,20.7542857 L9.69884804,20.7542857 Z" id="Shape"></path>
                    <path d="M55.0169216,29.2514286 L41.7847255,20.1085714 L41.7847255,17.1142857 L46.0873873,19.4685714 L44.9279216,12.4285714 L49.8735098,7.44 L43.0431029,6.41142857 L40.0043137,3.55271368e-15 L36.9600294,6.41142857 L30.157098,7.44 L32.7782598,10.1085714 L1.6924902,10.1085714 C1.07801627,10.1080986 0.573143255,10.6129172 0.549509804,11.2514286 L0.549509804,46.8285714 C0.547426645,46.8666359 0.547426645,46.9047927 0.549509804,46.9428571 C0.611493877,47.5325718 1.07855374,47.9866918 1.64852941,48.0114286 L17.430451,48.0114286 L37.7623137,59.7142857 C38.3074206,60.0200081 38.9873424,59.8262634 39.3064363,59.2742857 L55.3411324,30.8342857 C55.6513776,30.3003164 55.5094872,29.6075814 55.0169216,29.2514286 L55.0169216,29.2514286 Z M2.8134902,12.4628571 L35.0752108,12.4628571 L33.9212402,19.4685714 L39.4932696,16.4228571 L39.4932696,41.8114286 L29.0525833,20.2285714 C28.8574985,19.842322 28.4769777,19.595795 28.0575838,19.5839438 C27.6381899,19.5720927 27.2453559,19.7967663 27.0303873,20.1714286 L18.6228873,35.4114286 L12.8200637,29.4 C12.5731987,29.149382 12.231831,29.0261009 11.8887257,29.0636579 C11.5456203,29.1012148 11.2364195,29.2957083 11.0451471,29.5942857 L2.84096569,42.7942857 L2.84096569,12.4628571 L2.8134902,12.4628571 Z M3.76414216,45.6457143 L12.1716422,32.1142857 L18.0623873,38.1885714 C18.3173677,38.4468515 18.6723041,38.5690266 19.0251182,38.5199596 C19.3779323,38.4708927 19.6895217,38.2560218 19.8702745,37.9371429 L27.970049,23.2514286 L38.784402,45.6457143 L3.79161765,45.6457143 L3.76414216,45.6457143 Z M37.8996912,57.0742857 L22.1617304,48.0114286 L40.63625,48.0114286 C41.2558561,47.9880916 41.7538028,47.4727723 41.7792304,46.8285714 L41.7792304,22.9714286 L52.8463578,30.6057143 L37.8996912,57.0742857 Z" id="Shape"></path>
                </g>
            </g>
        </g>
    </g>
</svg>