<?xml version="1.0" encoding="UTF-8"?>
<svg width="51px" height="60px" viewBox="0 0 51 60" version="1.1" xmlns="http://www.w3.org/2000/svg" xmlns:xlink="http://www.w3.org/1999/xlink">
    <!-- Generator: Sketch 55 (78076) - https://sketchapp.com -->
    <title>Group 3</title>
    <desc>Created with Sketch.</desc>
    <g id="Plugin-Increase-File" stroke="none" stroke-width="1" fill="none" fill-rule="evenodd">
        <g id="IFM----More-Optimization-V2" transform="translate(-432.000000, -750.000000)">
            <g id="Group-4" transform="translate(171.000000, 667.000000)">
                <g id="Group-3" transform="translate(261.000000, 83.000000)">
                    <g id="Group-2">
                        <path d="M32.95875,4.5 C32.95875,3.67157288 32.4221633,3 31.76025,3 L22.17225,3 C21.5103367,3 20.97375,3.67157288 20.97375,4.5 C20.97375,5.32842712 21.5103367,6 22.17225,6 L31.76025,6 C32.4221633,6 32.95875,5.32842712 32.95875,4.5 L32.95875,4.5 Z" id="Shape"></path>
                        <polygon id="Shape" fill="#FFFFFF" points="10.4100225 9 2.99625 16.0538793 4.57122751 18 11.985 10.9461207"></polygon>
                        <g id="Group">
                            <path d="M25.1994503,57.1714286 C37.5648631,57.1714286 47.5890107,46.9379371 47.5890107,34.3142857 C47.5890107,21.6906343 37.5648631,11.4571429 25.1994503,11.4571429 C12.8340375,11.4571429 2.80988984,21.6906343 2.80988984,34.3142857 C2.80988984,40.3763769 5.16878318,46.1901806 9.36764026,50.4767264 C13.5664973,54.7632722 19.2613696,57.1714286 25.1994503,57.1714286 L25.1994503,57.1714286 Z M24.3878287,33.5142857 L37.2954103,20.32 C37.5783756,20.0311252 37.9908066,19.9183068 38.3773444,20.0240423 C38.7638822,20.1297778 39.0658026,20.4380035 39.1693751,20.8326137 C39.2729476,21.227224 39.162437,21.6482681 38.8794717,21.9371429 L25.9718901,35.1257143 C25.5277257,35.5140306 24.8656285,35.4879226 24.4521279,35.0657865 C24.0386274,34.6436505 24.0130534,33.967726 24.3934261,33.5142857 L24.3878287,33.5142857 Z" id="Shape"></path>
                            <path d="M25.1994503,59.4571429 C38.8014042,59.7727339 50.0785701,48.7717307 50.3877054,34.8857143 C50.6968407,20.9996979 39.9208822,9.48702006 26.3189283,9.17142857 L26.3189283,6.86285714 L29.6773624,6.86285714 C31.5321743,6.86285714 33.0357964,5.32783343 33.0357964,3.43428571 C33.0357964,1.540738 31.5321743,0.00571428571 29.6773624,0.00571428571 L20.7215382,0.00571428571 C18.8667263,0.00571428571 17.3631041,1.540738 17.3631041,3.43428571 C17.3631041,5.32783343 18.8667263,6.86285714 20.7215382,6.86285714 L24.0799723,6.86285714 L24.0799723,9.17714286 C10.4795641,9.49273443 -0.295141321,21.004133 0.0139939942,34.8885714 C0.323129309,48.7730098 11.5990421,59.7727338 25.1994503,59.4571429 L25.1994503,59.4571429 Z M20.7215382,4.6 C20.1032675,4.6 19.6020602,4.08832543 19.6020602,3.45714286 C19.6020602,2.82596029 20.1032675,2.31428571 20.7215382,2.31428571 L29.6773624,2.31428571 C30.295633,2.31428571 30.7968404,2.82596029 30.7968404,3.45714286 C30.7968404,4.08832543 30.295633,4.6 29.6773624,4.6 L20.7215382,4.6 L20.7215382,4.6 Z M25.1994503,11.4571429 C37.5648631,11.4571429 47.5890107,21.6906343 47.5890107,34.3142857 C47.5890107,46.9379371 37.5648631,57.1714286 25.1994503,57.1714286 C12.8340375,57.1714286 2.80988984,46.9379371 2.80988984,34.3142857 C2.80394787,28.2482352 5.16021781,22.4285577 9.35971909,18.1370671 C13.5592204,13.8455764 19.2574884,11.4342827 25.1994503,11.4342857 L25.1994503,11.4571429 Z" id="Shape" fill="#FFFFFF"></path>
                            <path d="M25.9718901,35.1257143 L38.8794717,21.9371429 C39.162437,21.6482681 39.2729476,21.227224 39.1693751,20.8326137 C39.0658026,20.4380035 38.7638822,20.1297778 38.3773444,20.0240423 C37.9908066,19.9183068 37.5783756,20.0311252 37.2954103,20.32 L24.3934261,33.5142857 C24.0130534,33.967726 24.0386274,34.6436505 24.4521279,35.0657865 C24.8656285,35.4879226 25.5277257,35.5140306 25.9718901,35.1257143 L25.9718901,35.1257143 Z" id="Shape" fill="#FFFFFF"></path>
                        </g>
                    </g>
                </g>
            </g>
        </g>
    </g>
</svg>